<?xml version="1.0" encoding="utf-8"?>
<!-- Generator: Adobe Illustrator 23.0.1, SVG Export Plug-In . SVG Version: 6.00 Build 0)  -->
<svg version="1.1" id="Calque_1" xmlns="http://www.w3.org/2000/svg" xmlns:xlink="http://www.w3.org/1999/xlink" x="0px" y="0px"
	 viewBox="0 0 183.3 212.8" style="enable-background:new 0 0 183.3 212.8;" xml:space="preserve">
	<style type="text/css">
		@media (prefers-color-scheme: dark) {
			path { fill: #db003c; }
		}
	</style>
<path fill="#db0b2d" d="M168,0c-9.7,0-18.9,4.9-29.8,16.1c-12.4,12.8-22.5,32.7-28.5,56H90.6l-0.1,0.6l-0.9,3.5L89.3,77h19.1
	c-4.8,17.6-10.6,45.2-12.6,54.4c-0.4,1.7-0.6,2.9-0.7,3.3c-1.3,5.7-6.8,9.7-10.8,9.7s-5.8-2.7-5.8-8.8V78.7
	c0-7.9-4.2-14.7-12.2-19.5c-6.8-4.1-15.7-6.4-24.6-6.4c-12.9,0-20.9,4.1-25.3,7.6c-5.6,4.4-8.9,10.4-8.9,16.4
	c0,7.9,3.9,12.9,10.3,12.9c6.1,0,10.7-4.2,10.7-9.8c0-6-2.6-7.8-4.7-9.2c-1.4-0.9-2.4-1.6-2.4-3.4c0-7.1,14-9.5,20.3-9.5
	c14.1,0,17.1,6.5,17.1,11.9v26h-3.4c-8,0-23.3,0.8-36,6.1S0,115.5,0,126.7c0,15,10.4,24,27.9,24c14.8,0,24.3-3.9,31.5-13
	c2.1,7.7,10,13,19.6,13c5.1,0.2,10-1.6,13.9-4.8c-4.1,18.6-7.3,32-10.3,41.2c-2.5,7.8-5.8,13.5-9.6,17.1c-3.6,3.3-6.6,3.7-7.7,3.7
	c-1.7,0-2.5-0.5-2.5-1.5c0-0.7,0.4-1.1,1.2-1.9c2-1.7,3.1-4.3,2.9-7c0-5.7-4.3-9.6-10.5-9.6c-2.8,0-5.4,1.2-7.3,3.2
	c-2.1,2.3-3.3,5.3-3.2,8.4c0.1,3.4,1.5,6.7,4,9.1c2.6,2.7,6.1,4.2,9.8,4.2c13.5,0,22.6-5.4,37.8-36.2c7-14.1,12.9-36,20.5-63.7
	c3.1-11.4,6.3-23.1,10-35.8h22.9l0.1-0.6l0.6-3.5l0.2-0.9h-22.8l6.5-23.9c3.8-14.1,15.5-43.3,26.9-43.3c1.8,0,2.3,0.2,2.3,1
	c0,0.5-0.4,1-0.9,1.6c-1.7,2-2.7,4.6-2.6,7.3c0,6.3,5.7,10.1,11.1,10.1c6,0.2,11-4.6,11.1-10.5c0-0.1,0-0.1,0-0.2
	C183.3,6.1,176.7,0,168,0z M58.8,100.5v27.7c0,3.8-6.8,15.8-22.7,15.8c-12.6,0-15.1-7.5-15.1-20.6c0-10,3.7-16.5,11.4-19.9
	c7-3.1,16.5-3.1,23.5-3.1L58.8,100.5z"/>
</svg>
