<?xml version="1.0" standalone="no"?>
<!DOCTYPE svg PUBLIC "-//W3C//DTD SVG 20010904//EN"
 "http://www.w3.org/TR/2001/REC-SVG-20010904/DTD/svg10.dtd">
<svg version="1.0" xmlns="http://www.w3.org/2000/svg"
 width="852.000000pt" height="852.000000pt" viewBox="0 0 852.000000 852.000000"
 preserveAspectRatio="xMidYMid meet">
<metadata>
Created by potrace 1.14, written by Peter Selinger 2001-2017
</metadata>
<g transform="translate(0.000000,852.000000) scale(0.100000,-0.100000)"
fill="#000000" stroke="none">
<path d="M7126 8504 c-153 -27 -338 -102 -491 -199 -60 -38 -206 -143 -215
-156 -3 -3 -33 -29 -66 -57 -138 -114 -341 -328 -460 -484 -26 -35 -51 -65
-54 -68 -3 -3 -19 -25 -35 -50 -16 -25 -32 -47 -35 -50 -8 -7 -118 -181 -175
-275 -53 -89 -204 -383 -248 -485 -16 -36 -34 -78 -42 -95 -88 -190 -261 -697
-313 -915 l-8 -35 -377 -1 c-276 0 -381 -4 -389 -12 -7 -7 -9 -12 -6 -12 4 0
0 -16 -8 -35 -8 -19 -14 -38 -14 -42 0 -23 -14 -74 -21 -79 -5 -3 -7 -8 -5
-12 2 -4 173 -7 380 -6 207 0 379 -2 381 -6 2 -4 0 -22 -6 -41 -12 -40 -98
-373 -105 -408 -3 -14 -7 -28 -10 -33 -3 -5 -7 -21 -9 -37 -2 -15 -11 -57 -20
-92 -9 -35 -18 -71 -20 -79 -2 -8 -17 -74 -34 -147 -17 -72 -33 -144 -36 -160
-8 -39 -13 -58 -15 -58 -1 0 -3 -7 -5 -15 -3 -15 -27 -126 -31 -145 -1 -5 -4
-21 -7 -35 -3 -14 -17 -79 -32 -145 -15 -66 -28 -126 -30 -135 -2 -8 -10 -47
-19 -85 -8 -39 -17 -82 -20 -95 -3 -14 -15 -68 -26 -120 -12 -52 -24 -108 -27
-125 -8 -44 -11 -60 -13 -60 -1 0 -3 -11 -6 -24 -28 -153 -71 -317 -97 -371
-42 -88 -149 -195 -239 -239 -113 -56 -235 -52 -297 8 -27 26 -78 111 -67 111
3 0 0 15 -6 33 -8 22 -12 422 -13 1277 -1 685 -5 1261 -8 1281 -4 20 -11 47
-16 60 -5 13 -9 27 -9 32 -1 20 -15 73 -21 82 -4 6 -14 26 -21 45 -22 57 -115
191 -172 248 -84 83 -108 102 -193 158 -157 102 -335 180 -520 225 -117 29
-152 36 -250 46 -27 2 -66 8 -85 12 -44 9 -301 6 -395 -4 -38 -4 -81 -8 -95
-10 -88 -8 -338 -75 -367 -98 -7 -5 -13 -7 -13 -3 0 9 -245 -118 -260 -135 -3
-3 -23 -18 -45 -34 -70 -51 -192 -180 -243 -258 -92 -141 -133 -283 -128 -442
7 -218 87 -373 230 -447 54 -28 69 -31 175 -33 72 -2 108 2 150 16 110 38 186
99 234 188 37 66 40 80 43 186 4 160 -37 255 -146 335 -124 92 -143 120 -129
197 22 115 126 202 323 270 39 13 85 26 101 29 17 3 46 9 65 14 114 30 355 42
500 25 87 -10 223 -50 283 -83 103 -56 192 -174 212 -282 4 -19 8 -284 9 -587
l1 -553 -90 -1 c-49 0 -135 -2 -190 -4 -120 -5 -122 -5 -137 -4 -30 2 -282
-23 -378 -37 -19 -3 -48 -7 -65 -9 -42 -4 -205 -34 -213 -39 -4 -2 -23 -7 -42
-10 -19 -3 -69 -15 -110 -26 -41 -12 -85 -23 -98 -26 -12 -2 -73 -23 -135 -45
-161 -58 -173 -63 -188 -75 -8 -6 -30 -17 -49 -24 -49 -19 -204 -114 -259
-158 -25 -20 -54 -44 -64 -52 -11 -8 -38 -35 -61 -59 -22 -24 -46 -49 -52 -55
-79 -84 -158 -236 -193 -371 -23 -88 -25 -116 -24 -255 1 -164 2 -176 31 -282
70 -253 231 -440 477 -554 40 -19 80 -34 89 -34 8 0 17 -4 20 -9 3 -5 23 -12
43 -16 21 -5 43 -9 48 -11 30 -8 64 -15 99 -20 22 -3 43 -7 47 -9 13 -8 176
-18 284 -17 105 1 220 8 295 18 19 2 53 6 75 8 22 2 78 14 125 25 79 20 105
28 155 47 11 4 27 8 35 10 24 5 185 86 192 98 4 6 8 7 8 3 0 -18 163 113 251
203 l96 98 33 -75 c19 -42 51 -99 73 -127 41 -51 136 -146 149 -146 4 0 13 -6
20 -13 38 -34 205 -110 268 -122 14 -3 36 -7 50 -10 135 -27 308 -23 435 10
72 19 215 84 215 98 0 6 3 7 6 4 4 -4 24 7 46 24 21 17 41 30 43 27 2 -2 -4
-37 -14 -78 -11 -41 -21 -88 -24 -105 -3 -16 -8 -39 -11 -50 -2 -11 -10 -42
-16 -70 -7 -27 -14 -59 -15 -70 -2 -11 -8 -40 -15 -65 -7 -25 -14 -53 -16 -63
-2 -10 -5 -26 -8 -35 -3 -9 -7 -28 -10 -42 -2 -14 -10 -47 -16 -75 -6 -27 -13
-57 -15 -65 -2 -8 -13 -53 -25 -100 -11 -47 -23 -96 -26 -110 -3 -14 -8 -34
-11 -45 -4 -11 -8 -24 -9 -30 -20 -97 -122 -466 -164 -595 -12 -36 -23 -69
-24 -75 -2 -5 -6 -17 -9 -25 -4 -8 -18 -47 -32 -86 -34 -95 -107 -244 -163
-329 -106 -162 -219 -270 -338 -324 -65 -30 -102 -36 -182 -32 -29 2 -61 38
-57 63 3 13 9 24 15 26 5 2 10 8 10 13 0 5 17 27 38 47 165 162 118 488 -85
591 -185 93 -384 70 -513 -60 -50 -51 -110 -145 -110 -173 0 -9 -4 -16 -8 -16
-11 0 -12 -7 -17 -125 -5 -118 13 -195 70 -290 36 -60 153 -180 187 -191 10
-3 18 -10 18 -15 0 -5 3 -8 8 -7 4 1 25 -6 47 -16 42 -18 52 -22 125 -38 47
-10 345 0 345 12 0 2 14 5 55 13 63 12 240 85 240 99 0 4 7 8 15 8 8 0 15 5
15 10 0 6 4 9 8 8 15 -5 133 92 217 177 78 79 178 200 245 300 19 28 38 55 42
60 13 15 111 174 140 225 14 25 35 61 46 80 38 64 101 184 174 330 40 80 78
148 83 152 6 4 7 8 3 8 -4 0 6 27 22 59 67 135 177 421 265 691 31 96 63 192
71 213 8 20 14 40 15 45 2 10 5 19 22 77 9 28 21 70 28 95 7 25 14 50 15 55
32 103 141 483 159 550 13 50 29 103 35 119 6 16 9 31 6 33 -2 3 2 21 11 41 8
20 16 43 18 52 2 9 24 92 50 185 26 94 48 177 50 185 2 8 20 74 40 145 20 72
37 137 39 145 2 8 10 35 17 60 7 25 13 50 15 55 1 6 9 37 18 70 9 33 19 67 21
75 2 8 16 58 31 110 14 52 27 100 29 105 1 6 5 17 8 25 3 8 10 33 15 55 21 82
43 160 49 175 3 8 7 20 8 25 19 78 48 180 56 202 6 16 13 39 16 53 2 13 13 52
23 85 10 33 24 81 31 108 7 26 18 47 24 48 5 0 211 1 457 1 496 1 451 -6 462
68 4 19 8 47 10 63 3 15 8 36 11 47 5 15 2 20 -12 21 -10 0 -212 1 -450 2
-237 1 -434 5 -438 8 -3 4 5 49 20 100 14 52 39 144 56 204 16 61 32 117 34
125 2 8 11 42 20 75 9 33 17 67 20 75 2 8 4 15 5 15 1 0 3 7 5 15 9 46 111
412 141 510 38 120 154 441 164 450 3 3 6 12 8 20 2 8 14 39 27 68 14 29 25
55 25 57 0 3 18 42 40 89 22 46 40 88 40 94 0 5 7 15 15 22 8 7 13 16 10 20
-3 4 3 18 13 31 10 13 22 33 26 43 7 20 142 251 157 271 5 5 35 46 68 90 108
147 234 256 332 289 89 30 180 25 193 -10 3 -9 -17 -48 -47 -92 -29 -42 -61
-104 -72 -137 -34 -109 -21 -243 34 -335 40 -67 171 -168 236 -181 2 0 26 -6
53 -14 69 -18 195 -11 262 14 127 48 207 131 264 273 24 60 19 219 -9 302 -65
189 -236 337 -439 380 -87 18 -236 18 -340 0z m-4180 -4569 c0 -455 -3 -569
-14 -610 -17 -59 -70 -165 -83 -165 -5 0 -9 -7 -9 -15 0 -25 -159 -179 -235
-227 -77 -50 -245 -126 -262 -120 -2 0 -17 -4 -35 -9 -112 -34 -279 -43 -421
-22 -159 23 -286 103 -352 221 -73 130 -99 277 -98 557 0 187 5 240 27 333 24
97 91 232 142 288 6 7 22 25 36 42 56 67 254 185 348 208 8 2 40 10 70 18 30
8 71 18 90 21 19 3 49 8 65 11 40 7 76 11 160 19 39 4 71 8 72 9 1 1 114 2
250 1 l248 0 1 -560z"/>
</g>
</svg>
